<svg xmlns="http://www.w3.org/2000/svg" width="70.891" height="70.393" viewBox="0 0 70.891 70.393">
  <g id="Group_105" data-name="Group 105" transform="translate(-82.504 -177.335)">
    <g id="Group_104" data-name="Group 104">
      <path id="Path_13" data-name="Path 13" d="M117.924,191.873A20.659,20.659,0,1,0,138.6,212.505,20.69,20.69,0,0,0,117.924,191.873Zm-7.51,35.38a16.716,16.716,0,0,1-8.88-12.655c1.973,0,3.9.006,5.817,0,.474,0,.346.358.359.584a39.093,39.093,0,0,0,.685,5.378,28.464,28.464,0,0,0,2.021,6.39C110.452,227.026,110.528,227.1,110.414,227.253Zm-.056-29.008a32.343,32.343,0,0,0-2.6,11.027,3.89,3.89,0,0,0-.027.549c.036.535-.2.668-.724.658-1.806-.034-3.614-.013-5.47-.013a16.721,16.721,0,0,1,8.867-12.651C110.593,198,110.409,198.131,110.358,198.245Zm1.469,11.888a27.888,27.888,0,0,1,2.517-10.615,8.8,8.8,0,0,1,1.94-2.726,2.15,2.15,0,0,1,3.337.009,11.4,11.4,0,0,1,2.752,4.613,30.77,30.77,0,0,1,1.7,8.662c.033.479-.222.389-.483.389h-5.71c-1.857,0-3.714,0-5.571-.005C112.1,210.46,111.794,210.6,111.827,210.133Zm12.244,4.8a27.947,27.947,0,0,1-2.516,10.615,9.04,9.04,0,0,1-1.839,2.633,2.218,2.218,0,0,1-3.541-.01,11.582,11.582,0,0,1-2.63-4.455,30.665,30.665,0,0,1-1.716-8.726c-.031-.48.228-.389.489-.39q2.82,0,5.64,0c1.879,0,3.759,0,5.639,0C123.805,214.6,124.1,214.458,124.071,214.931Zm3.922-15.507a16.516,16.516,0,0,1,6.3,10.594c.064.381-.026.459-.392.456-1.672-.018-3.345-.035-5.017.007-.548.014-.691-.171-.714-.675a34.391,34.391,0,0,0-1.407-8.3,20.069,20.069,0,0,0-1.484-3.752A12.757,12.757,0,0,1,127.993,199.424Zm-2.477,27.791a.611.611,0,0,1-.189.027,27.214,27.214,0,0,0,2.254-7.072,32.1,32.1,0,0,0,.59-4.972c.014-.448.136-.624.631-.614,1.695.035,3.391.015,5.086.013.255,0,.491-.057.416.372A16.52,16.52,0,0,1,125.516,227.215Z" fill="#03598c"/>
      <g id="Group_103" data-name="Group 103">
        <path id="Path_14" data-name="Path 14" d="M118.3,183.669a26.841,26.841,0,0,0-5.133.464,28.318,28.318,0,0,0-13.321,6.286c-.316.266-.48.267-.767-.035-.837-.883-1.7-1.737-2.577-2.583a.648.648,0,0,1-.185-.88,6.15,6.15,0,0,0,.573-2.666,6.882,6.882,0,1,0-11.835,4.734,6.807,6.807,0,0,0,7.652,1.542.67.67,0,0,1,.88.183c1.335,1.358,2.687,2.7,4.035,4.046,1.221,1.22,2.267,1.238,3.508.042a25.142,25.142,0,0,1,4.689-3.582,24.7,24.7,0,0,1,12.5-3.427,2.063,2.063,0,1,0-.024-4.124ZM90,186.97a2.753,2.753,0,1,1,2.749-2.757A2.761,2.761,0,0,1,90,186.97Z" fill="#03598c"/>
        <path id="Path_15" data-name="Path 15" d="M118.216,241.131a26.839,26.839,0,0,0,5.132-.464,28.322,28.322,0,0,0,13.322-6.286c.315-.266.479-.267.766.036.837.882,1.7,1.736,2.578,2.582a.648.648,0,0,1,.184.88,6.15,6.15,0,0,0-.573,2.666,6.882,6.882,0,1,0,11.835-4.734,6.807,6.807,0,0,0-7.652-1.542.669.669,0,0,1-.879-.183c-1.335-1.358-2.688-2.7-4.036-4.046-1.221-1.22-2.267-1.238-3.508-.041a25.18,25.18,0,0,1-4.689,3.581,24.7,24.7,0,0,1-12.5,3.427,2.063,2.063,0,1,0,.025,4.124Zm28.291-3.3a2.753,2.753,0,1,1-2.748,2.757A2.76,2.76,0,0,1,146.507,237.83Z" fill="#03598c"/>
        <path id="Path_16" data-name="Path 16" d="M146.3,212.629a26.842,26.842,0,0,0-.464-5.133,28.318,28.318,0,0,0-6.286-13.321c-.266-.315-.267-.48.035-.767.883-.837,1.737-1.7,2.583-2.577a.646.646,0,0,1,.88-.184,6.149,6.149,0,0,0,2.666.572,6.882,6.882,0,1,0-4.734-11.835,6.807,6.807,0,0,0-1.542,7.652.67.67,0,0,1-.183.88c-1.358,1.335-2.7,2.688-4.046,4.035-1.22,1.221-1.238,2.267-.042,3.508a25.142,25.142,0,0,1,3.582,4.689,24.7,24.7,0,0,1,3.427,12.505,2.063,2.063,0,1,0,4.124-.024ZM143,184.337a2.753,2.753,0,1,1,2.757,2.749A2.761,2.761,0,0,1,143,184.337Z" fill="#03598c"/>
        <path id="Path_17" data-name="Path 17" d="M88.838,212.549a26.838,26.838,0,0,0,.464,5.132A28.322,28.322,0,0,0,95.588,231c.266.315.267.48-.036.767-.882.836-1.736,1.7-2.582,2.577a.647.647,0,0,1-.88.184,6.15,6.15,0,0,0-2.666-.573,6.882,6.882,0,1,0,4.734,11.835,6.807,6.807,0,0,0,1.542-7.652.669.669,0,0,1,.183-.879c1.358-1.335,2.7-2.688,4.046-4.036,1.22-1.221,1.238-2.267.041-3.508a25.147,25.147,0,0,1-3.581-4.689,24.7,24.7,0,0,1-3.427-12.5,2.063,2.063,0,1,0-4.124.024Zm3.3,28.292a2.753,2.753,0,1,1-2.757-2.749A2.759,2.759,0,0,1,92.139,240.841Z" fill="#03598c"/>
      </g>
    </g>
  </g>
</svg>
