<svg xmlns="http://www.w3.org/2000/svg" xmlns:xlink="http://www.w3.org/1999/xlink" width="251.757" height="225.878" viewBox="0 0 251.757 225.878">
  <defs>
    <radialGradient id="radial-gradient" cx="1.002" cy="0.392" fx="0.9182872176170349" r="0.789" gradientTransform="translate(0.051) scale(0.897 1)" gradientUnits="objectBoundingBox">
      <stop offset="0" stop-color="#c5a461" />
      <stop offset="0.179" stop-color="#bf9f5d" />
      <stop offset="0.394" stop-color="#b19252" />
      <stop offset="0.627" stop-color="#997c40" />
      <stop offset="0.872" stop-color="#775e28" />
      <stop offset="1" stop-color="#634c19" />
    </radialGradient>
  </defs>
  <path id="Path_11" data-name="Path 11" d="M327.612,269.615l-48.291-83.642a29.3,29.3,0,0,0-25.371-14.648H157.37A29.305,29.305,0,0,0,132,185.973L83.707,269.615a29.293,29.293,0,0,0,0,29.3l39.45,68.332a7,7,0,0,0,12,.227l15.816-25.131s9.569-12.029.082-25.826a240.24,240.24,0,0,1-18.8-33.11,17.732,17.732,0,0,1,1.6-15.46l34.415-56.659s2.821-8.105,14.664-8c12.784.115,34.111,2.08,34.111,2.08l-38.555,63.475s-10.335,15.657,8.685,27.21c4.239,2.572,7.484,4.551,9.966,6.061s5.735,3.475,9.974,6.05c19.02,11.553,28.152-4.835,28.152-4.835l38.555-63.473S285.4,257.881,291.4,269.172c5.552,10.461-.339,16.7-.339,16.7l-34.415,56.659a17.742,17.742,0,0,1-12.981,8.548,240.2,240.2,0,0,1-38.049-1.42c-16.615-2.06-22.879,11.977-22.879,11.977l-14.664,25.018a7.007,7.007,0,0,0,6.045,10.549H253.95a29.294,29.294,0,0,0,25.371-14.65l48.291-83.64A29.293,29.293,0,0,0,327.612,269.615Z" transform="translate(-79.781 -171.325)" fill="url(#radial-gradient)" />
</svg>