<svg xmlns="http://www.w3.org/2000/svg" width="86.002" height="82.505" viewBox="0 0 86.002 82.505">
  <path id="Path_12" data-name="Path 12" d="M140.488,240.506,107.511,220.72a2.608,2.608,0,0,1,.01-4.479l16.1-9.56a2.608,2.608,0,0,1,2.624-.023l15.579,8.89,11.548-6.629L125.9,192.581l-21.6,12.807a2.722,2.722,0,0,1-3.729-.954h0a2.722,2.722,0,0,1,.953-3.728l19.051-11.294-12.432-7.392a2.608,2.608,0,0,1,.023-4.5l32.36-18.8a2.612,2.612,0,0,1,2.6-.014l33.179,18.795a2.608,2.608,0,0,1,.063,4.5l-17.3,10.453a2.608,2.608,0,0,1-2.751-.033l-14.53-9.262-10.548,6.253,27.563,16.39,23.316-13.383a2.721,2.721,0,0,1,3.715,1.006h0a2.722,2.722,0,0,1-1.006,3.715L164.163,209l12.176,7.24a2.608,2.608,0,0,1,0,4.481L143.166,240.51A2.607,2.607,0,0,1,140.488,240.506Zm-26.1-22.01,27.45,16.471,27.632-16.479-10.722-6.375-15.615,8.962a2.61,2.61,0,0,1-2.591,0L124.983,212.2Zm28.85-40.857,14.516,9.254,11.647-7.038-27.55-15.606-26.784,15.557,10.838,6.445,14.6-8.656A2.607,2.607,0,0,1,143.234,177.639Z" transform="translate(-100.183 -158.374)" fill="#e81c25" />
</svg>